<?xml version="1.0" encoding="UTF-8"?>
<svg version="1.1" xmlns="http://www.w3.org/2000/svg" width="512" height="512">
<path d="M0 0 C0.78815094 -0.00979385 1.57630188 -0.01958771 2.38833618 -0.02967834 C57.5483953 -0.57387622 106.9920599 16.99852622 146.91064453 55.73535156 C171.40285238 79.90560349 188.18980934 110.64323412 197.18359375 143.73828125 C197.37010498 144.41157471 197.55661621 145.08486816 197.7487793 145.77856445 C201.66294144 160.99796478 202.98862959 176.2606341 202.87109375 191.92578125 C202.86653168 193.22715027 202.86653168 193.22715027 202.86187744 194.55480957 C202.59177301 246.89264517 181.1695741 293.54589383 145.05859375 330.92578125 C138.94161529 336.91918439 132.28845222 342.12650338 125.43359375 347.23828125 C124.6034375 347.86347656 123.77328125 348.48867188 122.91796875 349.1328125 C94.29949059 369.91527878 57.48107225 384.23195079 21.82421875 384.44140625 C21.02367065 384.44842056 20.22312256 384.45543488 19.39831543 384.46266174 C16.82668379 384.4800835 14.25528225 384.48651457 11.68359375 384.48828125 C10.80610474 384.48895599 9.92861572 384.48963074 9.02453613 384.49032593 C-3.73246099 384.4747131 -16.08976224 384.1414731 -28.56640625 381.23828125 C-29.33678223 381.0666748 -30.1071582 380.89506836 -30.90087891 380.71826172 C-49.06360761 376.58986574 -66.18467901 370.06217245 -82.56640625 361.23828125 C-83.47664551 360.75705811 -83.47664551 360.75705811 -84.40527344 360.26611328 C-93.5137077 355.42679675 -101.61139574 349.75500281 -109.56640625 343.23828125 C-110.11184082 342.79581055 -110.65727539 342.35333984 -111.21923828 341.89746094 C-123.8841442 331.58561797 -134.80524513 320.32793022 -144.56640625 307.23828125 C-145.19160156 306.408125 -145.81679687 305.57796875 -146.4609375 304.72265625 C-167.30814322 276.0150287 -181.44718701 239.2856277 -181.8046875 203.55078125 C-181.81448135 202.738974 -181.82427521 201.92716675 -181.83436584 201.09075928 C-182.38144743 143.9641398 -164.12036582 94.88280821 -124.19140625 53.55078125 C-118.07442779 47.55737811 -111.42126472 42.35005912 -104.56640625 37.23828125 C-103.73625 36.61308594 -102.90609375 35.98789063 -102.05078125 35.34375 C-72.9694532 14.22516653 -36.15345714 0.37507723 0 0 Z M-95.56640625 52.23828125 C-96.45714844 52.90730469 -97.34789062 53.57632813 -98.265625 54.265625 C-134.74018596 82.67107532 -157.64964549 124.44132872 -164.09912109 170.00146484 C-164.59513079 174.07423072 -164.74322106 178.12620661 -164.76953125 182.2265625 C-164.77659088 182.96303009 -164.78365051 183.69949768 -164.79092407 184.45828247 C-165.05928112 207.02219139 -165.05928112 207.02219139 -161.56640625 229.23828125 C-161.36772949 230.06215332 -161.16905273 230.88602539 -160.96435547 231.73486328 C-153.41331419 262.22749516 -139.14711806 290.21715882 -117.06201172 312.71191406 C-115.55946056 314.2453698 -114.07988219 315.79867577 -112.6015625 317.35546875 C-80.7797926 350.48699211 -35.85036593 366.74622327 9.43359375 368.23828125 C56.17608023 368.71892378 100.08419509 349.39150348 133.43359375 317.23828125 C134.25988281 316.47515625 135.08617187 315.71203125 135.9375 314.92578125 C164.44866254 287.83331219 183.97097167 245.74232417 185.59472656 206.3269043 C185.61421146 204.9680038 185.62799856 203.60901221 185.63671875 202.25 C185.6473082 201.14529861 185.6473082 201.14529861 185.65811157 200.01828003 C185.92646862 177.45437111 185.92646862 177.45437111 182.43359375 155.23828125 C182.23491699 154.41440918 182.03624023 153.59053711 181.83154297 152.74169922 C174.28050169 122.24906734 160.01430556 94.25940368 137.92919922 71.76464844 C136.42664806 70.2311927 134.94706969 68.67788673 133.46875 67.12109375 C101.41088405 33.74375686 56.03792896 17.50758139 10.41796875 16.1484375 C-28.04406005 17.3063258 -64.98940372 28.41255527 -95.56640625 52.23828125 Z " fill="#55CA80" transform="translate(245.56640625,63.76171875)"/>
<path d="M0 0 C1.05549545 -0.00852997 2.11099091 -0.01705994 3.19847107 -0.02584839 C4.34611938 -0.02494202 5.4937677 -0.02403564 6.67619324 -0.02310181 C7.89302292 -0.02981903 9.1098526 -0.03653625 10.36355591 -0.04345703 C13.69434575 -0.05918574 17.02488621 -0.06581125 20.35569596 -0.0670886 C22.43944946 -0.06851251 24.52317702 -0.07278667 26.60692406 -0.07808304 C33.88458789 -0.09657517 41.16217857 -0.10475481 48.43986511 -0.10317993 C55.21037932 -0.10197923 61.98057438 -0.12306942 68.75100785 -0.15466726 C74.57455524 -0.18087175 80.39799867 -0.19154547 86.22160453 -0.19026911 C89.69498816 -0.18976063 93.16808813 -0.19537977 96.64141273 -0.21662521 C100.51901688 -0.23969678 104.396188 -0.23046115 108.27384949 -0.21841431 C109.41542511 -0.22965332 110.55700073 -0.24089233 111.73316956 -0.25247192 C119.51371498 -0.19112457 124.89737777 0.96222885 130.91130066 6.23226929 C131.45012878 6.88324585 131.98895691 7.53422241 132.54411316 8.20492554 C133.09841003 8.85332397 133.65270691 9.50172241 134.22380066 10.16976929 C137.14555496 14.41026134 137.91995739 18.09949541 137.9365387 23.20573425 C137.94933365 24.99091713 137.94933365 24.99091713 137.96238708 26.81216431 C137.96102753 28.7580545 137.96102753 28.7580545 137.9596405 30.74325562 C137.96562814 32.13001364 137.97243422 33.51676834 137.97999573 34.90351868 C137.99764027 38.66398828 138.00235048 42.42436682 138.0036273 46.18487382 C138.00505047 48.53664165 138.00932323 50.88838644 138.01462173 53.24014854 C138.03311772 61.4514856 138.04129299 69.66275779 138.03971863 77.87411499 C138.03851772 85.51711913 138.0596111 93.15984065 138.09120595 100.8027733 C138.11739693 107.37365886 138.12808473 113.94445229 138.12680781 120.51538962 C138.12629895 124.43589099 138.13193949 128.35614117 138.15316391 132.27659035 C138.17259383 135.96622617 138.17263883 139.65537246 138.15813065 143.34502602 C138.15505798 145.33540861 138.17168617 147.3257915 138.18901062 149.31610107 C138.13144533 157.54078527 137.2779385 163.14920338 131.70426941 169.50961304 C131.05329285 170.04844116 130.40231628 170.58726929 129.73161316 171.14242554 C129.08321472 171.69672241 128.43481628 172.25101929 127.76676941 172.82211304 C123.75076294 175.58919385 120.1818523 176.51709249 115.33822632 176.53485107 C114.28273087 176.54338104 113.22723541 176.55191101 112.13975525 176.56069946 C110.99210693 176.55979309 109.84445862 176.55888672 108.66203308 176.55795288 C107.4452034 176.5646701 106.22837372 176.57138733 104.97467041 176.57830811 C101.64388057 176.59403681 98.31334011 176.60066233 94.98253036 176.60193968 C92.89877685 176.60336359 90.8150493 176.60763775 88.73130226 176.61293411 C81.45363843 176.63142624 74.17604775 176.63960588 66.89836121 176.63803101 C60.127847 176.6368303 53.35765194 176.6579205 46.58721846 176.68951833 C40.76367108 176.71572282 34.94022764 176.72639654 29.11662179 176.72512019 C25.64323816 176.72461171 22.17013819 176.73023085 18.69681358 176.75147629 C14.81920944 176.77454786 10.94203831 176.76531222 7.06437683 176.75326538 C5.92280121 176.76450439 4.78122559 176.77574341 3.60505676 176.787323 C-4.17548866 176.72597565 -9.55915146 175.57262223 -15.57307434 170.30258179 C-16.38131653 169.32611694 -16.38131653 169.32611694 -17.20588684 168.32992554 C-17.76018372 167.6815271 -18.31448059 167.03312866 -18.88557434 166.36508179 C-21.80732864 162.12458973 -22.58173107 158.43535566 -22.59831238 153.32911682 C-22.60684235 152.1389949 -22.61537231 150.94887299 -22.62416077 149.72268677 C-22.62325439 148.42542664 -22.62234802 147.1281665 -22.62141418 145.79159546 C-22.62740182 144.40483743 -22.63420791 143.01808274 -22.64176941 141.6313324 C-22.65941395 137.87086279 -22.66412416 134.11048425 -22.66540098 130.34997725 C-22.66682415 127.99820943 -22.67109691 125.64646463 -22.67639542 123.29470253 C-22.6948914 115.08336547 -22.70306667 106.87209328 -22.70149231 98.66073608 C-22.7002914 91.01773194 -22.72138479 83.37501042 -22.75297964 75.73207778 C-22.77917061 69.16119221 -22.78985841 62.59039879 -22.78858149 56.01946145 C-22.78807263 52.09896009 -22.79371318 48.1787099 -22.81493759 44.25826073 C-22.83436751 40.56862491 -22.83441251 36.87947861 -22.81990433 33.18982506 C-22.81683166 31.19944246 -22.83345985 29.20905957 -22.8507843 27.21875 C-22.79321901 18.99406581 -21.93971218 13.3856477 -16.36604309 7.02523804 C-15.71506653 6.48640991 -15.06408997 5.94758179 -14.39338684 5.39242554 C-13.7449884 4.83812866 -13.09658997 4.28383179 -12.42854309 3.71273804 C-8.41253662 0.94565723 -4.84362598 0.01775858 0 0 Z M-4.33088684 19.26742554 C-7.11148865 23.69111024 -6.33088684 26.62867185 -6.33088684 32.26742554 C35.90911316 32.26742554 78.14911316 32.26742554 121.66911316 32.26742554 C121.92224561 24.46024643 121.92224561 24.46024643 118.66911316 18.26742554 C113.83747907 15.41277472 108.34566131 15.97957667 102.91545105 15.99276733 C101.83195877 15.9876564 100.74846649 15.98254547 99.63214111 15.97727966 C96.05196096 15.9633841 92.47197331 15.96434038 88.89176941 15.96664429 C86.40222095 15.96275748 83.91267316 15.95842284 81.42312622 15.95365906 C76.20537669 15.94619701 70.98769482 15.94648815 65.76994324 15.95175171 C60.41277362 15.95712396 55.05579296 15.9500776 49.69865417 15.9312439 C43.2284187 15.90878816 36.75834106 15.90099084 30.28806877 15.90491676 C27.82291045 15.90440332 25.35774841 15.89916119 22.89261055 15.88910484 C19.44561386 15.8767685 15.99915784 15.88351573 12.5521698 15.89511108 C11.02538605 15.88364548 11.02538605 15.88364548 9.46775818 15.87194824 C4.13191834 15.91162065 0.24815316 16.1964253 -4.33088684 19.26742554 Z M-6.33088684 48.26742554 C-6.39276184 65.30367554 -6.45463684 82.33992554 -6.51838684 99.89242554 C-6.54569885 105.26733276 -6.57301086 110.64223999 -6.60115051 116.18002319 C-6.61118517 121.00721453 -6.61118517 121.00721453 -6.61721802 125.83441162 C-6.62181817 127.9808336 -6.63235579 130.12724793 -6.64761353 132.27362061 C-6.6695937 135.52901637 -6.67260415 138.78393927 -6.67146301 142.03939819 C-6.68225734 142.99211924 -6.69305166 143.94484028 -6.70417309 144.92643166 C-6.68009757 150.06199579 -6.44152594 153.95065163 -3.33088684 158.26742554 C1.19353405 161.31566595 7.16611541 160.55485283 12.42277527 160.54208374 C13.50626755 160.54719467 14.58975983 160.5523056 15.70608521 160.55757141 C19.28626536 160.57146697 22.866253 160.57051069 26.44645691 160.56820679 C28.93600537 160.5720936 31.42555316 160.57642824 33.9151001 160.58119202 C39.13284963 160.58865406 44.35053149 160.58836293 49.56828308 160.58309937 C54.9254527 160.57772712 60.28243336 160.58477347 65.63957214 160.60360718 C72.10980762 160.62606292 78.57988525 160.63386024 85.05015755 160.62993431 C87.51531587 160.63044776 89.98047791 160.63568989 92.44561577 160.64574623 C95.89261246 160.65808258 99.33906848 160.65133535 102.78605652 160.63973999 C103.80391235 160.64738373 104.82176819 160.65502747 105.87046814 160.66290283 C111.13990629 160.62372412 115.25786209 160.49579406 119.66911316 157.26742554 C122.60431869 152.83414023 121.93476463 147.28264454 121.89616394 142.15292358 C121.89652555 140.60571861 121.89652555 140.60571861 121.89689445 139.02725697 C121.89540385 135.69446444 121.88018249 132.3618967 121.86442566 129.02914429 C121.86148444 126.96912748 121.85944449 124.90910918 121.85832214 122.84909058 C121.84784391 115.21767941 121.81992145 107.58630026 121.79411316 99.95492554 C121.73223816 74.36961304 121.73223816 74.36961304 121.66911316 48.26742554 C79.42911316 48.26742554 37.18911316 48.26742554 -6.33088684 48.26742554 Z " fill="#63D37E" transform="translate(166.3308868408203,167.73257446289063)"/>
<path d="M0 0 C4.94569815 4.10886259 8.4923127 9.51483293 12.25 14.6875 C12.88679688 15.55439453 13.52359375 16.42128906 14.1796875 17.31445312 C20.12192565 25.4376191 20.12192565 25.4376191 20.14717102 31.75631714 C20.15432632 32.98175232 20.16148163 34.2071875 20.16885376 35.46975708 C20.17169412 36.83514379 20.17440584 38.20053077 20.17700195 39.56591797 C20.18326563 40.99812994 20.18991234 42.43034028 20.19691467 43.86254883 C20.21433139 47.75926325 20.22487791 51.6559654 20.2331202 55.5527091 C20.23826816 57.98599938 20.24434393 60.41928582 20.25063133 62.85257339 C20.26968393 70.46222714 20.28391581 78.07187117 20.2922433 85.68154418 C20.30202182 94.4724964 20.32835691 103.26319722 20.36874419 112.05406082 C20.39887444 118.84476783 20.41370916 125.63540265 20.41702431 132.42617524 C20.41937804 136.48409871 20.42838014 140.54175364 20.45348549 144.59960556 C20.47671794 148.41638346 20.48101924 152.23271509 20.47072411 156.04954529 C20.47022747 157.45080675 20.47658544 158.85208982 20.49028015 160.25328445 C20.50792319 162.16534695 20.49853237 164.0776021 20.48774719 165.98971558 C20.49013555 167.06008497 20.4925239 168.13045437 20.49498463 169.2332592 C19.87841604 172.67959948 18.70975922 173.85568324 16 176 C14.02734375 176.50793457 14.02734375 176.50793457 11.9375 176.51757812 C11.14988281 176.53018677 10.36226563 176.54279541 9.55078125 176.55578613 C8.70902344 176.54768921 7.86726563 176.53959229 7 176.53125 C6.12730469 176.5350769 5.25460937 176.53890381 4.35546875 176.54284668 C2.51300908 176.5455649 0.67051076 176.53820994 -1.171875 176.52148438 C-3.99045934 176.50007248 -6.80649485 176.52128801 -9.625 176.546875 C-11.41667229 176.54423171 -13.20834299 176.53910669 -15 176.53125 C-15.84175781 176.53934692 -16.68351562 176.54744385 -17.55078125 176.55578613 C-18.33839844 176.54317749 -19.12601562 176.53056885 -19.9375 176.51757812 C-20.97197266 176.51280457 -20.97197266 176.51280457 -22.02734375 176.50793457 C-24.95057367 175.75523905 -26.10445982 174.31768358 -28 172 C-28.52571106 169.27515888 -28.52571106 169.27515888 -28.56176758 166.09065247 C-28.58460815 164.88125504 -28.60744873 163.6718576 -28.63098145 162.42581177 C-28.63596278 161.08831952 -28.64046319 159.75082541 -28.64453125 158.41333008 C-28.66305421 157.00189651 -28.68315425 155.59048289 -28.70471191 154.17909241 C-28.75716589 150.34360693 -28.78298448 146.50840149 -28.80075455 142.67261338 C-28.81249936 140.26966205 -28.82892367 137.86678614 -28.84677124 135.46387291 C-28.90149285 127.92734894 -28.94013455 120.39099867 -28.9555788 112.85428983 C-28.97343558 104.18984627 -29.04329473 95.52794796 -29.15958118 86.86427766 C-29.24655446 80.14801247 -29.28642308 73.43245589 -29.29174328 66.71563452 C-29.29590534 62.71401148 -29.31884959 58.71477818 -29.39102173 54.71375465 C-29.91149496 24.12208894 -29.91149496 24.12208894 -19.16479492 12.32377625 C-18.38584366 11.52540124 -18.38584366 11.52540124 -17.59115601 10.71089745 C-15.24405398 8.18716574 -13.28564619 5.40729193 -11.28657532 2.60476398 C-8.5339968 -0.82856698 -4.05747508 -0.97964263 0 0 Z M-5 23 C-6.83101642 24.99377613 -6.83101642 24.99377613 -8.625 27.5625 C-9.57246094 28.83287109 -9.57246094 28.83287109 -10.5390625 30.12890625 C-12.5290926 33.5028917 -12.5290926 33.5028917 -12 40 C-6.72 40 -1.44 40 4 40 C4.10860446 32.85615736 4.10860446 32.85615736 0.625 27.5625 C-0.00148438 26.69753906 -0.62796875 25.83257812 -1.2734375 24.94140625 C-1.84320313 24.30074219 -2.41296875 23.66007812 -3 23 C-3.66 23 -4.32 23 -5 23 Z M-12 56 C-12 90.32 -12 124.64 -12 160 C-6.72 160 -1.44 160 4 160 C4 125.68 4 91.36 4 56 C-1.28 56 -6.56 56 -12 56 Z " fill="#2FB283" transform="translate(348,168)"/>
<path d="M0 0 C0.85247314 -0.00700928 1.70494629 -0.01401855 2.58325195 -0.02124023 C5.3995832 -0.03883756 8.21490864 -0.02719147 11.03125 -0.01367188 C12.98893425 -0.01636629 14.9466172 -0.02024829 16.90429688 -0.02526855 C21.00664007 -0.03116595 25.10863482 -0.02259281 29.2109375 -0.00390625 C34.47045628 0.01888337 39.72915864 0.00576159 44.98864746 -0.01819611 C49.0309871 -0.03264751 53.07313305 -0.0280511 57.11547852 -0.01768494 C59.05476986 -0.01501583 60.99407877 -0.01829385 62.93334961 -0.02760315 C65.6435405 -0.03775789 68.35240775 -0.02228315 71.0625 0 C71.86469971 -0.00809692 72.66689941 -0.01619385 73.4934082 -0.02453613 C77.09387563 0.03033112 79.1245547 0.20680866 82.02734375 2.42492676 C83.65685192 4.69235034 84.0743805 5.75722605 84.03125 8.51757812 C84.04671875 9.50757813 84.04671875 9.50757813 84.0625 10.51757812 C83.25733917 13.54877184 82.02578717 14.61141893 79.53125 16.51757812 C76.5833973 16.912136 74.00947717 17.06490127 71.0625 17.03515625 C69.78379028 17.04567017 69.78379028 17.04567017 68.47924805 17.05639648 C65.6629168 17.07399381 62.84759136 17.06234772 60.03125 17.04882812 C58.07356575 17.05152254 56.1158828 17.05540454 54.15820312 17.0604248 C50.05585993 17.0663222 45.95386518 17.05774906 41.8515625 17.0390625 C36.59204372 17.01627288 31.33334136 17.02939466 26.07385254 17.05335236 C22.0315129 17.06780376 17.98936695 17.06320735 13.94702148 17.05284119 C12.00773014 17.05017208 10.06842123 17.0534501 8.12915039 17.0627594 C5.4189595 17.07291414 2.71009225 17.0574394 0 17.03515625 C-0.80219971 17.04325317 -1.60439941 17.0513501 -2.4309082 17.05969238 C-6.03137563 17.00482513 -8.0620547 16.82834759 -10.96484375 14.61022949 C-12.59435192 12.34280591 -13.0118805 11.2779302 -12.96875 8.51757812 C-12.98421875 7.52757812 -12.98421875 7.52757812 -13 6.51757812 C-11.24883612 -0.07503884 -5.81974348 -0.05874101 0 0 Z " fill="#63D37E" transform="translate(188.46875,295.482421875)"/>
<path d="M0 0 C0.85247314 -0.00700928 1.70494629 -0.01401855 2.58325195 -0.02124023 C5.3995832 -0.03883756 8.21490864 -0.02719147 11.03125 -0.01367188 C12.98893425 -0.01636629 14.9466172 -0.02024829 16.90429688 -0.02526855 C21.00664007 -0.03116595 25.10863482 -0.02259281 29.2109375 -0.00390625 C34.47045628 0.01888337 39.72915864 0.00576159 44.98864746 -0.01819611 C49.0309871 -0.03264751 53.07313305 -0.0280511 57.11547852 -0.01768494 C59.05476986 -0.01501583 60.99407877 -0.01829385 62.93334961 -0.02760315 C65.6435405 -0.03775789 68.35240775 -0.02228315 71.0625 0 C71.86469971 -0.00809692 72.66689941 -0.01619385 73.4934082 -0.02453613 C77.09387563 0.03033112 79.1245547 0.20680866 82.02734375 2.42492676 C83.65685192 4.69235034 84.0743805 5.75722605 84.03125 8.51757812 C84.04671875 9.50757813 84.04671875 9.50757813 84.0625 10.51757812 C83.25733917 13.54877184 82.02578717 14.61141893 79.53125 16.51757812 C76.5833973 16.912136 74.00947717 17.06490127 71.0625 17.03515625 C69.78379028 17.04567017 69.78379028 17.04567017 68.47924805 17.05639648 C65.6629168 17.07399381 62.84759136 17.06234772 60.03125 17.04882812 C58.07356575 17.05152254 56.1158828 17.05540454 54.15820312 17.0604248 C50.05585993 17.0663222 45.95386518 17.05774906 41.8515625 17.0390625 C36.59204372 17.01627288 31.33334136 17.02939466 26.07385254 17.05335236 C22.0315129 17.06780376 17.98936695 17.06320735 13.94702148 17.05284119 C12.00773014 17.05017208 10.06842123 17.0534501 8.12915039 17.0627594 C5.4189595 17.07291414 2.71009225 17.0574394 0 17.03515625 C-0.80219971 17.04325317 -1.60439941 17.0513501 -2.4309082 17.05969238 C-6.03137563 17.00482513 -8.0620547 16.82834759 -10.96484375 14.61022949 C-12.59435192 12.34280591 -13.0118805 11.2779302 -12.96875 8.51757812 C-12.98421875 7.52757812 -12.98421875 7.52757812 -13 6.51757812 C-11.24883612 -0.07503884 -5.81974348 -0.05874101 0 0 Z " fill="#63D37E" transform="translate(188.46875,263.482421875)"/>
<path d="M0 0 C0.85247314 -0.00700928 1.70494629 -0.01401855 2.58325195 -0.02124023 C5.3995832 -0.03883756 8.21490864 -0.02719147 11.03125 -0.01367188 C12.98893425 -0.01636629 14.9466172 -0.02024829 16.90429688 -0.02526855 C21.00664007 -0.03116595 25.10863482 -0.02259281 29.2109375 -0.00390625 C34.47045628 0.01888337 39.72915864 0.00576159 44.98864746 -0.01819611 C49.0309871 -0.03264751 53.07313305 -0.0280511 57.11547852 -0.01768494 C59.05476986 -0.01501583 60.99407877 -0.01829385 62.93334961 -0.02760315 C65.6435405 -0.03775789 68.35240775 -0.02228315 71.0625 0 C71.86469971 -0.00809692 72.66689941 -0.01619385 73.4934082 -0.02453613 C77.09387563 0.03033112 79.1245547 0.20680866 82.02734375 2.42492676 C83.65685192 4.69235034 84.0743805 5.75722605 84.03125 8.51757812 C84.04671875 9.50757813 84.04671875 9.50757813 84.0625 10.51757812 C83.25733917 13.54877184 82.02578717 14.61141893 79.53125 16.51757812 C76.5833973 16.912136 74.00947717 17.06490127 71.0625 17.03515625 C69.78379028 17.04567017 69.78379028 17.04567017 68.47924805 17.05639648 C65.6629168 17.07399381 62.84759136 17.06234772 60.03125 17.04882812 C58.07356575 17.05152254 56.1158828 17.05540454 54.15820312 17.0604248 C50.05585993 17.0663222 45.95386518 17.05774906 41.8515625 17.0390625 C36.59204372 17.01627288 31.33334136 17.02939466 26.07385254 17.05335236 C22.0315129 17.06780376 17.98936695 17.06320735 13.94702148 17.05284119 C12.00773014 17.05017208 10.06842123 17.0534501 8.12915039 17.0627594 C5.4189595 17.07291414 2.71009225 17.0574394 0 17.03515625 C-0.80219971 17.04325317 -1.60439941 17.0513501 -2.4309082 17.05969238 C-6.03137563 17.00482513 -8.0620547 16.82834759 -10.96484375 14.61022949 C-12.59435192 12.34280591 -13.0118805 11.2779302 -12.96875 8.51757812 C-12.98421875 7.52757812 -12.98421875 7.52757812 -13 6.51757812 C-11.24883612 -0.07503884 -5.81974348 -0.05874101 0 0 Z " fill="#63D37E" transform="translate(188.46875,231.482421875)"/>
</svg>
